<?xml version="1.0" standalone="no"?>
<!DOCTYPE svg PUBLIC "-//W3C//DTD SVG 20010904//EN"
 "http://www.w3.org/TR/2001/REC-SVG-20010904/DTD/svg10.dtd">
<svg version="1.0" xmlns="http://www.w3.org/2000/svg"
 width="259.200000pt" height="259.200000pt" viewBox="0 0 259.200000 259.200000"
 preserveAspectRatio="xMidYMid meet">
<metadata>
Created by potrace 1.16, written by Peter Selinger 2001-2019
</metadata>
<g transform="translate(0.000000,259.200000) scale(0.072000,-0.072000)"
fill="#000000" stroke="none">
<path d="M1521 3590 c-78 -33 -120 -98 -121 -187 l0 -53 -274 0 c-150 0 -297
-5 -327 -10 -172 -33 -309 -163 -339 -322 -14 -71 -13 -2618 0 -2689 6 -29 20
-74 32 -99 29 -59 120 -150 181 -179 108 -52 81 -51 1127 -51 1064 0 1040 -1
1139 57 62 36 125 97 155 148 58 98 56 44 56 1461 0 838 -4 1320 -10 1355 -30
158 -167 287 -339 319 -29 6 -177 10 -327 10 l-274 0 0 53 c-1 72 -29 129 -81
164 l-42 28 -266 2 c-154 1 -276 -2 -290 -7z m344 -95 c55 -54 15 -140 -65
-140 -80 0 -120 86 -65 140 34 35 96 35 130 0z m-805 -594 c0 -131 4 -231 11
-248 14 -38 56 -80 104 -106 40 -22 45 -22 625 -22 580 0 585 0 625 22 48 26
90 68 104 106 7 17 11 117 11 248 l0 221 123 -4 c114 -3 127 -5 164 -30 79
-52 73 62 73 -1412 0 -1103 -2 -1322 -14 -1350 -19 -45 -71 -83 -132 -96 -33
-7 -354 -10 -984 -8 l-935 3 -44 25 c-24 14 -54 38 -65 53 l-21 28 0 1342 0
1342 22 31 c41 57 92 74 221 74 l112 0 0 -219z m1240 29 l0 -180 -500 0 -500
0 0 180 0 180 500 0 500 0 0 -180z"/>
<path d="M1371 2135 c-38 -34 -40 -35 -50 -17 -18 33 -66 42 -223 42 -159 0
-207 -10 -227 -48 -16 -30 -14 -362 2 -383 26 -34 54 -39 232 -39 l177 0 29
29 c28 28 29 33 29 121 l0 92 70 76 c88 95 94 135 23 156 -17 5 -31 -2 -62
-29z m-107 -51 c26 -26 19 -44 -43 -106 -67 -67 -79 -68 -138 -18 -43 38 -69
45 -98 26 -17 -11 -25 -26 -25 -45 0 -24 15 -42 86 -102 105 -89 129 -93 183
-31 20 23 39 42 44 42 12 0 8 -75 -5 -88 -8 -8 -61 -12 -174 -12 -138 0 -163
2 -168 16 -3 9 -6 80 -6 159 0 117 3 146 16 159 23 23 305 23 328 0z"/>
<path d="M1667 1942 c-22 -24 -21 -55 1 -75 17 -15 69 -17 539 -17 491 0 521
1 536 18 22 24 21 55 -1 75 -17 15 -69 17 -539 17 -491 0 -521 -1 -536 -18z"/>
<path d="M1363 1519 l-31 -32 -27 22 c-26 20 -39 21 -207 21 l-180 0 -29 -29
-29 -29 0 -176 c0 -170 1 -176 24 -203 l24 -28 172 -3 c248 -5 260 3 260 160
l0 97 70 75 c52 57 70 83 70 104 0 61 -65 72 -117 21z m-90 -71 c9 -13 3 -26
-33 -66 -41 -45 -78 -72 -99 -72 -5 0 -28 16 -52 35 -67 53 -129 46 -129 -16
0 -20 15 -39 63 -81 135 -117 140 -118 205 -53 24 25 46 45 48 45 9 0 3 -83
-6 -101 -10 -18 -23 -19 -168 -19 -110 0 -162 4 -170 12 -17 17 -17 309 0 326
9 9 56 12 172 10 136 -3 160 -5 169 -20z"/>
<path d="M1672 1394 c-27 -18 -29 -55 -4 -77 17 -15 69 -17 540 -17 567 0 552
-1 552 55 0 55 0 55 -555 55 -446 0 -513 -2 -533 -16z"/>
<path d="M1365 904 l-34 -36 -27 21 c-25 20 -38 21 -206 21 l-180 0 -29 -29
-29 -29 0 -176 c0 -170 1 -176 24 -203 l24 -28 192 0 192 0 24 28 c22 26 24
37 24 129 l0 100 70 78 c74 82 85 113 52 143 -29 27 -61 20 -97 -19z m-95 -69
c14 -17 10 -25 -54 -92 -51 -54 -79 -56 -136 -8 -45 38 -79 44 -104 19 -35
-35 -20 -65 70 -141 103 -88 122 -91 179 -33 21 22 43 40 47 40 12 0 10 -78
-2 -101 -10 -18 -23 -19 -168 -19 -110 0 -162 4 -170 12 -17 17 -17 309 0 326
8 8 60 12 169 12 127 0 159 -3 169 -15z"/>
<path d="M1672 844 c-26 -18 -29 -56 -6 -78 14 -14 76 -16 539 -16 570 0 555
-1 555 55 0 55 0 55 -555 55 -446 0 -513 -2 -533 -16z"/>
</g>
</svg>
